<?xml version="1.0" ?><svg enable-background="new 0 0 52 52" id="Layer_1" version="1.1" viewBox="0 0 52 52" xml:space="preserve" xmlns="http://www.w3.org/2000/svg" xmlns:xlink="http://www.w3.org/1999/xlink"><g><g><path d="M27.9375,8.4873047h-3.875c-9.4082031,0-17.0625,7.6542969-17.0625,17.0625v15.8496094    c0,2.9335938,0.8505859,5.7841797,2.4609375,8.2460938l1.6738281-1.0957031C9.7382813,46.4150391,9,43.9423828,9,41.3994141    V25.5498047c0-8.3056641,6.7568359-15.0625,15.0625-15.0625h3.875c8.3056641,0,15.0625,6.7568359,15.0625,15.0625v15.8496094    c0,2.5449219-0.7382813,5.0175781-2.1347656,7.1503906l1.6738281,1.0957031C44.1494141,47.1855469,45,44.3339844,45,41.3994141    V25.5498047C45,16.1416016,37.3457031,8.4873047,27.9375,8.4873047z" fill="#3A92CC"/></g><g><path d="M26.9882813,14.2919922h-1.9765625c-7.5234375,0-13.6445313,6.1210938-13.6445313,13.6445313v11.5253906    c0,1.8007813,0.5722656,8.34375,1.9033203,10.3779297l1.6738281-1.0957031    c-0.8955078-1.3681641-1.5771484-6.9902344-1.5771484-9.2822266V27.9365234    c0-6.4208984,5.2236328-11.6445313,11.6445313-11.6445313h1.9765625c6.4208984,0,11.6445313,5.2246094,11.6445313,11.6455078    v11.5244141c0,2.2919922-0.6816406,7.9140625-1.5771484,9.2822266l1.6738281,1.0957031    c1.3310547-2.0341797,1.9033203-8.5771484,1.9033203-10.3779297V27.9375    C40.6328125,20.4130859,34.5117188,14.2919922,26.9882813,14.2919922z" fill="#3A92CC"/></g><g><path d="M36.0888672,29.3808594c0-5.5634766-4.5253906-10.0888672-10.0888672-10.0888672    c-5.5625,0-10.0878906,4.5253906-10.0878906,10.0888672v7.0244141c0,0.703125,0.3056641,7.6855469,1.3232422,9.2402344    l1.6748047-1.0947266c-0.4873047-0.7861328-0.9980469-6.1455078-0.9980469-8.1455078v-7.0244141    c0-4.4599609,3.6279297-8.0888672,8.0878906-8.0888672s8.0888672,3.6289063,8.0888672,8.0888672l0.0009766,7.0732422    c0.3457031,7.0039063-4.5419922,9.6376953-7.1679688,11.0517578c-0.9130859,0.4921875-1.4638672,0.7890625-1.7578125,1.2392578    l1.625,1.1572266c0.1240234-0.1191406,0.6552734-0.4052734,1.0820313-0.6357422    c2.7988281-1.5078125,8.625-4.6464844,8.2177734-12.8613281V29.3808594z"/></g><g><path d="M29.0244141,2.0976563h-6.0488281C11.4091797,2.0976563,2,11.5068359,2,23.0732422v20.8027344    c0,1.8613281,0.2753723,3.7158203,0.8183594,5.5107422l1.9140625-0.578125C4.2460938,47.2011719,4,45.5410156,4,43.8759766    V23.0732422C4,12.6103516,12.5126953,4.0976563,22.9755859,4.0976563h6.0488281C39.4873047,4.0976563,48,12.6103516,48,23.0732422    v20.8027344c0,1.6650391-0.2460938,3.3251953-0.7324219,4.9326172l1.9140625,0.578125    C49.7246094,47.5917969,50,45.7373047,50,43.8759766V23.0732422C50,11.5068359,40.5908203,2.0976563,29.0244141,2.0976563z"/></g><g><path d="M31.0078735,34.7918701c0-4.7698975-2.1900024-8.5-5-8.5c-2.7999878,0-5,3.7301025-5,8.5    c0,4.7700195,2.2000122,8.5,5,8.5C28.8178711,43.2918701,31.0078735,39.5618896,31.0078735,34.7918701z" fill="#3A92CC"/></g></g></svg>