<?xml version="1.0" ?><!DOCTYPE svg  PUBLIC '-//W3C//DTD SVG 1.1//EN'  'http://www.w3.org/Graphics/SVG/1.1/DTD/svg11.dtd'><svg enable-background="new 0 0 32 32" height="32px" version="1.1" viewBox="0 0 32 32" width="32px" xml:space="preserve" xmlns="http://www.w3.org/2000/svg" xmlns:xlink="http://www.w3.org/1999/xlink"><g id="pencil_pen"><g><g><g><g><path d="M13.5,14.5c0,1.65-1.35,3-3,3H9c-1.65,0-3-1.35-3-3v-10c0-1.65,1.35-3,3-3h1.5c1.65,0,3,1.35,3,3V14.5z       " fill="#FF8A80"/><path d="M7,12.625V4.5c0-1.65,1.35-3,3-3H8.5c-1.65,0-3,1.35-3,3v8.125H7z" fill="#FFFFFF"/><path d="M12,12.625V4.5c0-1.65-1.35-3-3-3h1.5c1.65,0,3,1.35,3,3v8.125H12z" fill="#E67C73"/><path d="M13.5,15c-0.276,0-0.5-0.224-0.5-0.5v-10C13,3.121,11.879,2,10.5,2h-2C7.121,2,6,3.121,6,4.5v8       C6,12.776,5.776,13,5.5,13S5,12.776,5,12.5v-8C5,2.57,6.57,1,8.5,1h2C12.43,1,14,2.57,14,4.5v10C14,14.776,13.776,15,13.5,15z" fill="#455A64"/></g><rect fill="#FF8A80" height="10" width="7.5" x="6" y="12.5"/><rect fill="#E67C73" height="10.125" width="1.5" x="12" y="12.5"/><rect fill="#FFFFFF" height="10.5" width="1.5" x="5.5" y="12.5"/><path d="M5.5,23C5.224,23,5,22.776,5,22.5v-8C5,14.224,5.224,14,5.5,14S6,14.224,6,14.5v8      C6,22.776,5.776,23,5.5,23z" fill="#455A64"/><path d="M13.5,23c-0.276,0-0.5-0.224-0.5-0.5V13H5.5C5.224,13,5,12.776,5,12.5S5.224,12,5.5,12h8      c0.276,0,0.5,0.224,0.5,0.5v10C14,22.776,13.776,23,13.5,23z" fill="#455A64"/><path d="M9.75,29.77c-0.449,1.01-0.176,1.01-0.625,0l-3.688-7.172h8L9.75,29.77z" fill="#FFFFFF"/><polygon fill="#ECEFF1" points="9.75,29.77 7.438,22.598 13.438,22.598     "/><path d="M9.5,31c-0.189,0-0.362-0.107-0.447-0.276l-4-8c-0.123-0.247-0.023-0.547,0.224-0.671      c0.248-0.123,0.547-0.023,0.671,0.224L9.5,29.382L12.691,23H7.5C7.224,23,7,22.776,7,22.5S7.224,22,7.5,22h6      c0.173,0,0.334,0.09,0.426,0.237c0.091,0.147,0.099,0.331,0.021,0.486l-4,8C9.862,30.893,9.689,31,9.5,31z" fill="#455A64"/></g><g><path d="M15.5,13.5c-0.276,0-0.5-0.224-0.5-0.5V3.5C15,2.673,14.327,2,13.5,2H9C8.724,2,8.5,1.776,8.5,1.5      S8.724,1,9,1h4.5C14.879,1,16,2.121,16,3.5V13C16,13.276,15.776,13.5,15.5,13.5z" fill="#455A64"/></g></g><path d="M28.5,31h-6c-0.276,0-0.5-0.224-0.5-0.5s0.224-0.5,0.5-0.5h6c0.276,0,0.5,0.224,0.5,0.5S28.776,31,28.5,31    z" fill="#455A64"/><path d="M15.5,31h-6C9.224,31,9,30.776,9,30.5S9.224,30,9.5,30h6c0.276,0,0.5,0.224,0.5,0.5S15.776,31,15.5,31z" fill="#455A64"/><circle cx="30.5" cy="30.5" fill="#455A64" r="0.5"/><circle cx="17.5" cy="30.5" fill="#455A64" r="0.5"/></g><g><g><path d="M26.5,7.5c0,1.65-1.35,3-3,3H22c-1.65,0-3-1.35-3-3v-3c0-1.65,1.35-3,3-3h1.5c1.65,0,3,1.35,3,3V7.5z" fill="#FF8A80"/><path d="M24.5,5.625V4.5c0-1.65-1.35-3-3-3h2c1.65,0,3,1.35,3,3v1.125H24.5z" fill="#E67C73"/><path d="M20.5,5.625V4.5c0-1.65,1.35-3,3-3h-2c-1.65,0-3,1.35-3,3v1.125H20.5z" fill="#FFFFFF"/><path d="M26.5,8C26.224,8,26,7.776,26,7.5v-3C26,3.121,24.879,2,23.5,2h-2C20.121,2,19,3.121,19,4.5v1     C19,5.776,18.776,6,18.5,6S18,5.776,18,5.5v-1C18,2.57,19.57,1,21.5,1h2C25.43,1,27,2.57,27,4.5v3C27,7.776,26.776,8,26.5,8z" fill="#455A64"/></g><rect fill="#80D8FF" height="17" width="8" x="19" y="5.5"/><rect fill="#73C2E6" height="17" width="2" x="24.5" y="5.5"/><rect fill="#FFFFFF" height="17" width="2" x="18.5" y="5.5"/><path d="M23.313,29.672c-0.449,1.01-1.176,1.01-1.625,0L18.5,22.5l2-1.5l2,1.5l2-1.5l2,1.5L23.313,29.672z" fill="#FFE0B2"/><path d="M20.223,26.375l1.465,3.297c0.449,1.01,1.176,1.01,1.625,0l1.465-3.297H20.223z" fill="#80D8FF"/><path d="M22.5,31c-0.189,0-0.362-0.107-0.447-0.276l-4-8c-0.123-0.247-0.023-0.547,0.224-0.671    c0.248-0.123,0.547-0.023,0.671,0.224l3.553,7.105l3.366-6.732L24.5,21.625L22.8,22.9c-0.178,0.133-0.422,0.133-0.6,0l-2-1.5    c-0.221-0.166-0.266-0.479-0.101-0.7c0.167-0.221,0.48-0.266,0.7-0.101l1.7,1.275l1.7-1.275c0.178-0.133,0.422-0.133,0.6,0l2,1.5    c0.193,0.146,0.256,0.408,0.147,0.624l-4,8C22.862,30.893,22.689,31,22.5,31z" fill="#455A64"/><g><path d="M24.5,7.5V21V7.5z" fill="#A9E4FF"/><path d="M24.5,21.5c-0.276,0-0.5-0.224-0.5-0.5V7.5C24,7.224,24.224,7,24.5,7S25,7.224,25,7.5V21     C25,21.276,24.776,21.5,24.5,21.5z" fill="#455A64"/></g><g><path d="M20.5,9.5V21V9.5z" fill="#A9E4FF"/><path d="M20.5,21.5c-0.276,0-0.5-0.224-0.5-0.5V9.5C20,9.224,20.224,9,20.5,9S21,9.224,21,9.5V21     C21,21.276,20.776,21.5,20.5,21.5z" fill="#455A64"/></g><circle cx="20.5" cy="7.5" fill="#455A64" r="0.5"/><g><path d="M22.5,26.5h2H22.5z" fill="#A9E4FF"/><path d="M24.5,27h-2c-0.276,0-0.5-0.224-0.5-0.5s0.224-0.5,0.5-0.5h2c0.276,0,0.5,0.224,0.5,0.5     S24.776,27,24.5,27z" fill="#455A64"/></g><g><path d="M18.5,23c-0.276,0-0.5-0.224-0.5-0.5v-15C18,7.224,18.224,7,18.5,7S19,7.224,19,7.5v15     C19,22.776,18.776,23,18.5,23z" fill="#455A64"/><path d="M26.5,23c-0.276,0-0.5-0.224-0.5-0.5V6h-7.5C18.224,6,18,5.776,18,5.5S18.224,5,18.5,5h8     C26.776,5,27,5.224,27,5.5v17C27,22.776,26.776,23,26.5,23z" fill="#455A64"/></g></g></g></svg>